<svg width="30" height="32" viewBox="0 0 30 32" fill="none" xmlns="http://www.w3.org/2000/svg">
<path d="M5.35714 6C5.07298 6 4.80046 6.10536 4.59953 6.29289C4.3986 6.48043 4.28571 6.73478 4.28571 7V11C4.28571 11.2652 4.3986 11.5196 4.59953 11.7071C4.80046 11.8946 5.07298 12 5.35714 12H20.3571C20.6413 12 20.9138 11.8946 21.1148 11.7071C21.3157 11.5196 21.4286 11.2652 21.4286 11V7C21.4286 6.73478 21.3157 6.48043 21.1148 6.29289C20.9138 6.10536 20.6413 6 20.3571 6H5.35714ZM6.42857 10V8H19.2857V10H6.42857ZM0 4C0 2.93913 0.451529 1.92172 1.25526 1.17157C2.05898 0.421427 3.14907 0 4.28571 0H21.4286C22.5652 0 23.6553 0.421427 24.459 1.17157C25.2628 1.92172 25.7143 2.93913 25.7143 4V28C25.7143 29.0609 25.2628 30.0783 24.459 30.8284C23.6553 31.5786 22.5652 32 21.4286 32H4.28571C3.14907 32 2.05898 31.5786 1.25526 30.8284C0.451529 30.0783 0 29.0609 0 28V4ZM4.28571 2C3.71739 2 3.17235 2.21071 2.77049 2.58579C2.36862 2.96086 2.14286 3.46957 2.14286 4V28C2.14286 28.5304 2.36862 29.0391 2.77049 29.4142C3.17235 29.7893 3.71739 30 4.28571 30H21.4286C21.9969 30 22.5419 29.7893 22.9438 29.4142C23.3457 29.0391 23.5714 28.5304 23.5714 28V4C23.5714 3.46957 23.3457 2.96086 22.9438 2.58579C22.5419 2.21071 21.9969 2 21.4286 2H4.28571ZM27.8571 8H28.9286C29.2127 8 29.4853 8.10536 29.6862 8.29289C29.8871 8.48043 30 8.73478 30 9V12C30 12.2652 29.8871 12.5196 29.6862 12.7071C29.4853 12.8946 29.2127 13 28.9286 13H27.8571V8ZM28.9286 15H27.8571V20H28.9286C29.2127 20 29.4853 19.8946 29.6862 19.7071C29.8871 19.5196 30 19.2652 30 19V16C30 15.7348 29.8871 15.4804 29.6862 15.2929C29.4853 15.1054 29.2127 15 28.9286 15ZM27.8571 22H28.9286C29.2127 22 29.4853 22.1054 29.6862 22.2929C29.8871 22.4804 30 22.7348 30 23V26C30 26.2652 29.8871 26.5196 29.6862 26.7071C29.4853 26.8946 29.2127 27 28.9286 27H27.8571V22Z" fill="white"/>
</svg>
