<svg width="126" height="126" viewBox="0 0 126 126" fill="none" xmlns="http://www.w3.org/2000/svg">
<path d="M54.25 74.25L40.6562 60.6563C39.5104 59.5104 38.0792 58.9646 36.3625 59.0188C34.6417 59.0688 33.2083 59.6667 32.0625 60.8125C30.9167 61.9583 30.3437 63.4167 30.3437 65.1875C30.3437 66.9583 30.9167 68.4167 32.0625 69.5625L49.875 87.375C51.0208 88.5208 52.4792 89.0938 54.25 89.0938C56.0208 89.0938 57.4792 88.5208 58.625 87.375L94.0937 51.9063C95.2396 50.7604 95.7875 49.3271 95.7375 47.6063C95.6833 45.8896 95.0833 44.4583 93.9375 43.3125C92.7917 42.1667 91.3333 41.5938 89.5625 41.5938C87.7917 41.5938 86.3333 42.1667 85.1875 43.3125L54.25 74.25ZM63 125.5C54.3542 125.5 46.2292 123.858 38.625 120.575C31.0208 117.296 24.4062 112.844 18.7812 107.219C13.1562 101.594 8.70417 94.9792 5.425 87.375C2.14167 79.7708 0.5 71.6458 0.5 63C0.5 54.3542 2.14167 46.2292 5.425 38.625C8.70417 31.0208 13.1562 24.4063 18.7812 18.7813C24.4062 13.1563 31.0208 8.70208 38.625 5.41875C46.2292 2.13958 54.3542 0.5 63 0.5C71.6458 0.5 79.7708 2.13958 87.375 5.41875C94.9792 8.70208 101.594 13.1563 107.219 18.7813C112.844 24.4063 117.296 31.0208 120.575 38.625C123.858 46.2292 125.5 54.3542 125.5 63C125.5 71.6458 123.858 79.7708 120.575 87.375C117.296 94.9792 112.844 101.594 107.219 107.219C101.594 112.844 94.9792 117.296 87.375 120.575C79.7708 123.858 71.6458 125.5 63 125.5ZM63 113C76.8542 113 88.6521 108.131 98.3937 98.3938C108.131 88.6521 113 76.8542 113 63C113 49.1458 108.131 37.3479 98.3937 27.6063C88.6521 17.8688 76.8542 13 63 13C49.1458 13 37.35 17.8688 27.6125 27.6063C17.8708 37.3479 13 49.1458 13 63C13 76.8542 17.8708 88.6521 27.6125 98.3938C37.35 108.131 49.1458 113 63 113Z" fill="#4ECB71" fill-opacity="0.9"/>
</svg>
