<svg width="21" height="31" viewBox="0 0 21 31" fill="none" xmlns="http://www.w3.org/2000/svg">
<path d="M20.4126 29.061L17.0522 15.1117C18.2946 13.4647 18.9675 11.4125 18.9579 9.29952C18.9579 6.83314 18.0383 4.46777 16.4014 2.72377C14.7645 0.979768 12.5445 0 10.2296 0C7.91469 0 5.69462 0.979768 4.05775 2.72377C2.42088 4.46777 1.50129 6.83314 1.50129 9.29952C1.49731 11.4288 2.18618 13.4938 3.45061 15.1427L0.0465798 29.061C-0.025827 29.3585 -0.013596 29.6722 0.0817193 29.9622C0.177035 30.2523 0.351131 30.5056 0.581886 30.69C0.81264 30.8744 1.08964 30.9815 1.37767 30.9978C1.66571 31.0141 1.95179 30.9388 2.19956 30.7814L9.95318 25.9302L18.2159 30.7969C18.4392 30.9405 18.6973 31.0106 18.9579 30.9984C19.1837 31.0061 19.4082 30.9576 19.6134 30.8568C19.8186 30.7559 19.999 30.6055 20.1402 30.4175C20.2814 30.2295 20.3795 30.009 20.4268 29.7735C20.474 29.5381 20.4692 29.2941 20.4126 29.061ZM10.2296 3.09984C11.3804 3.09984 12.5054 3.46345 13.4624 4.14468C14.4193 4.82591 15.1651 5.79416 15.6055 6.92701C16.0459 8.05985 16.1611 9.3064 15.9366 10.509C15.7121 11.7116 15.1579 12.8163 14.3441 13.6834C13.5303 14.5504 12.4935 15.1409 11.3648 15.3801C10.236 15.6193 9.06605 15.4965 8.00279 15.0273C6.93954 14.558 6.03076 13.7634 5.39137 12.7439C4.75199 11.7243 4.41072 10.5257 4.41072 9.29952C4.41072 7.65526 5.02378 6.07835 6.11502 4.91569C7.20627 3.75302 8.68632 3.09984 10.2296 3.09984Z" fill="white"/>
</svg>
