<svg width="27" height="27" viewBox="0 0 27 27" fill="none" xmlns="http://www.w3.org/2000/svg">
<path d="M13.4999 8.1C14.9719 8.1 16.3836 8.66893 17.4245 9.68162C18.4654 10.6943 19.0501 12.0678 19.0501 13.5C19.0501 14.9322 18.4654 16.3057 17.4245 17.3184C16.3836 18.3311 14.9719 18.9 13.4999 18.9C12.0278 18.9 10.6161 18.3311 9.57523 17.3184C8.53435 16.3057 7.94959 14.9322 7.94959 13.5C7.94959 12.0678 8.53435 10.6943 9.57523 9.68162C10.6161 8.66893 12.0278 8.1 13.4999 8.1ZM13.4999 10.8C12.7639 10.8 12.058 11.0845 11.5375 11.5908C11.0171 12.0972 10.7247 12.7839 10.7247 13.5C10.7247 14.2161 11.0171 14.9028 11.5375 15.4092C12.058 15.9155 12.7639 16.2 13.4999 16.2C14.2359 16.2 14.9417 15.9155 15.4622 15.4092C15.9826 14.9028 16.275 14.2161 16.275 13.5C16.275 12.7839 15.9826 12.0972 15.4622 11.5908C14.9417 11.0845 14.2359 10.8 13.4999 10.8ZM10.7247 27C10.3778 27 10.0864 26.757 10.0309 26.433L9.51754 22.8555C8.64337 22.518 7.89408 22.059 7.17255 21.519L3.7175 22.8825C3.41223 22.9905 3.03759 22.8825 2.87108 22.5855L0.0959374 17.9145C0.011012 17.7754 -0.0189273 17.611 0.0117183 17.452C0.0423639 17.2929 0.131496 17.1502 0.262446 17.0505L3.19022 14.8095L3.09309 13.5L3.19022 12.15L0.262446 9.9495C0.131496 9.84978 0.0423639 9.70707 0.0117183 9.54805C-0.0189273 9.38903 0.011012 9.2246 0.0959374 9.0855L2.87108 4.4145C3.03759 4.1175 3.41223 3.996 3.7175 4.1175L7.17255 5.4675C7.89408 4.941 8.64337 4.482 9.51754 4.1445L10.0309 0.567C10.0864 0.243 10.3778 0 10.7247 0H16.275C16.6219 0 16.9133 0.243 16.9688 0.567L17.4822 4.1445C18.3564 4.482 19.1056 4.941 19.8272 5.4675L23.2822 4.1175C23.5875 3.996 23.9621 4.1175 24.1287 4.4145L26.9038 9.0855C27.0842 9.3825 27.0009 9.747 26.7373 9.9495L23.8095 12.15L23.9066 13.5L23.8095 14.85L26.7373 17.0505C27.0009 17.253 27.0842 17.6175 26.9038 17.9145L24.1287 22.5855C23.9621 22.8825 23.5875 23.004 23.2822 22.8825L19.8272 21.5325C19.1056 22.059 18.3564 22.518 17.4822 22.8555L16.9688 26.433C16.9133 26.757 16.6219 27 16.275 27H10.7247ZM12.4592 2.7L11.9458 6.2235C10.2807 6.561 8.80988 7.425 7.74145 8.6265L4.39741 7.2225L3.35673 8.9775L6.2845 11.07C5.72947 12.645 5.72947 14.355 6.2845 15.93L3.34285 18.036L4.38353 19.791L7.75533 18.387C8.82376 19.575 10.2807 20.439 11.9319 20.763L12.4453 24.3H14.5544L15.0678 20.7765C16.719 20.439 18.176 19.575 19.2444 18.387L22.6162 19.791L23.6569 18.036L20.7152 15.9435C21.2703 14.364 21.2703 12.6495 20.7152 11.07L23.643 8.9775L22.6023 7.2225L19.2583 8.6265C18.168 7.39844 16.689 6.55786 15.0539 6.237L14.5405 2.7H12.4592Z" fill="black"/>
</svg>
