<svg width="138" height="134" viewBox="0 0 138 134" fill="none" xmlns="http://www.w3.org/2000/svg">
<path d="M133.641 22.4528L70.6406 1.20279C69.5716 0.869904 68.4284 0.869904 67.3594 1.20279L4.42501 22.4528H4.29376L3.63751 22.7848H3.57189L2.91564 23.1833C2.91564 23.2497 2.85001 23.2497 2.78439 23.3161L2.25939 23.7809L1.80001 24.3122C1.80001 24.3786 1.73439 24.3786 1.73439 24.445L1.34064 25.0426C1.34064 25.109 1.34064 25.109 1.27501 25.1754L1.01251 25.7731L0.815639 26.5036V26.7028C0.750909 26.963 0.72874 27.2322 0.750014 27.4997V80.6247C0.750014 82.0336 1.30314 83.3849 2.2877 84.3812C3.27227 85.3775 4.60763 85.9372 6.00001 85.9372C7.3924 85.9372 8.72776 85.3775 9.71232 84.3812C10.6969 83.3849 11.25 82.0336 11.25 80.6247V34.8708L33.3 42.3083C29.1575 49.0179 26.9736 56.7758 27 64.6872C27.0024 71.8823 28.81 78.9591 32.2535 85.2542C35.6969 91.5494 40.6634 96.8569 46.6875 100.679C34.1689 105.472 23.4816 114.17 16.1719 125.515C15.4268 126.708 15.1744 128.148 15.469 129.527C15.7636 130.906 16.5816 132.112 17.7469 132.886C18.3187 133.27 18.9601 133.535 19.6337 133.665C20.3074 133.796 21 133.79 21.6715 133.648C22.3429 133.506 22.9798 133.231 23.5453 132.838C24.1107 132.445 24.5935 131.942 24.9656 131.359C29.7309 123.932 36.2553 117.827 43.9458 113.601C51.6363 109.375 60.2487 107.161 69 107.161C77.7513 107.161 86.3637 109.375 94.0542 113.601C101.745 117.827 108.269 123.932 113.034 131.359C113.514 132.095 114.167 132.7 114.934 133.117C115.702 133.534 116.56 133.752 117.431 133.75C118.437 133.76 119.422 133.459 120.253 132.886C121.418 132.112 122.236 130.906 122.531 129.527C122.826 128.148 122.573 126.708 121.828 125.515C114.518 114.17 103.831 105.472 91.3125 100.679C97.3367 96.8569 102.303 91.5494 105.747 85.2542C109.19 78.9591 110.998 71.8823 111 64.6872C111.026 56.7758 108.843 49.0179 104.7 42.3083L133.641 32.5465C134.691 32.1972 135.606 31.5212 136.254 30.615C136.902 29.7087 137.251 28.6185 137.251 27.4997C137.251 26.3809 136.902 25.2906 136.254 24.3844C135.606 23.4781 134.691 22.8021 133.641 22.4528ZM100.5 64.6872C100.5 73.1409 97.1813 81.2485 91.2739 87.2262C85.3665 93.2039 77.3543 96.5622 69 96.5622C60.6457 96.5622 52.6335 93.2039 46.7262 87.2262C40.8188 81.2485 37.5 73.1409 37.5 64.6872C37.5127 57.8854 39.6487 51.2616 43.6031 45.7614L67.3594 53.7965C68.425 54.1513 69.575 54.1513 70.6406 53.7965L94.3969 45.7614C98.3513 51.2616 100.487 57.8854 100.5 64.6872ZM94.3969 34.6051H94.3313L69 43.1715L43.6688 34.6051H43.6031L22.6031 27.4997L69 11.8278L115.397 27.4997L94.3969 34.6051Z" fill="black"/>
</svg>
